<svg id="Layer_1" data-name="Layer 1" xmlns="http://www.w3.org/2000/svg" xmlns:xlink="http://www.w3.org/1999/xlink" viewBox="0 0 1680 464">
  <defs>
    <style>
      .cls-1 {
        fill: none;
        clip-rule: evenodd;
      }
      .cls-2,
      .cls-3,
      .cls-5,
      .cls-7,
      .cls-8,
      .cls-9 {
        fill-rule: evenodd;
      }
      .cls-2,
      .cls-7 {
        opacity: 0.38;
      }
      .cls-2 {
        fill: url("#New_Gradient_Swatch_4");
      }
      .cls-3 {
        fill: url("#New_Gradient_Swatch_2");
      }
      .cls-4,
      .cls-5 {
        fill: #fff;
      }
      .cls-6 {
        clip-path: url("#clip-path");
      }
      .cls-7 {
        fill: url("#New_Gradient_Swatch_1");
      }
      .cls-8 {
        opacity: 0.12;
        fill: url("#New_Gradient_Swatch_1-2");
      }
      .cls-9 {
        opacity: 0.5;
        fill: url("#New_Gradient_Swatch_3");
      }
      .cls-10 {
        fill: #757575;
      }
    </style>
    <linearGradient id="New_Gradient_Swatch_4" x1="178.9" y1="146.54" x2="250.99" y2="321.36" gradientUnits="userSpaceOnUse"><stop offset="0" stop-opacity="0.12"/><stop offset="1" stop-opacity="0.38"/></linearGradient>
    <linearGradient id="New_Gradient_Swatch_2" x1="204.01" y1="226.78" x2="232.5" y2="314.68" gradientUnits="userSpaceOnUse"><stop offset="0" stop-color="#6e54a3"/><stop offset="1" stop-color="#53407a"/></linearGradient>
    <clipPath id="clip-path"><path class="cls-1" d="M187.83,142a5.75,5.75,0,0,0-5.83,6v12a5.75,5.75,0,0,0,5.83,6h10L148.05,301.12c-3.43,9.32,1.84,16.88,11.79,16.88h140c9.95,0,15.23-7.56,11.79-16.88L261.83,166h10a6.27,6.27,0,0,0,6.17-6V148a6.27,6.27,0,0,0-6.17-6Z"/></clipPath>
    <linearGradient id="New_Gradient_Swatch_1" x1="229.67" y1="175.94" x2="266" y2="272.6" gradientUnits="userSpaceOnUse"><stop offset="0" stop-opacity="0.38"/><stop offset="1" stop-opacity="0"/></linearGradient><linearGradient id="New_Gradient_Swatch_1-2" x1="229.15" y1="182.17" x2="263.79" y2="277.34" xlink:href="#New_Gradient_Swatch_1"/>
    <linearGradient id="New_Gradient_Swatch_3" x1="179.74" y1="235.98" x2="205.2" y2="167.48" gradientUnits="userSpaceOnUse"><stop offset="0" stop-color="#fff" stop-opacity="0"/><stop offset="1" stop-color="#fff"/></linearGradient>
  </defs>
  <title>DPL Mark</title><path class="cls-2" d="M187.83,142a5.75,5.75,0,0,0-5.83,6v12a5.75,5.75,0,0,0,5.83,6h10L148.05,301.12c-3.43,9.32,1.84,16.88,11.79,16.88h140c9.95,0,15.23-7.56,11.79-16.88L261.83,166h10a6.27,6.27,0,0,0,6.17-6V148a6.27,6.27,0,0,0-6.17-6Z"/><path class="cls-3" d="M285.41,230c-43.58-.1-44.15-32-95.58-32-1.28,0-2.56,0-3.82.08l-38,103c-3.44,9.32,1.84,16.88,11.79,16.88h140c9.94,0,15.22-7.56,11.79-16.88Z"/><circle class="cls-4" cx="214" cy="246" r="24"/><path class="cls-5" d="M262,246a16,16,0,1,1-16,16,16,16,0,0,1,16-16"/><path class="cls-5" d="M230,282a12,12,0,1,1-12,12,12,12,0,0,1,12-12"/><polygon class="cls-5" points="252 148 194 148 188 148 188 154 188 166 194 166 194 154 252 154 252 148"/>
  <g class="cls-6"><polygon class="cls-7" points="198 166 254 166 311 318 255 318 198 166"/><polygon class="cls-8" points="183.79 166 261.79 166 318.79 320 253.79 320 183.79 166"/></g><polygon class="cls-9" points="210 166 202 166 145 318 153 318 210 166"/><path
    class="cls-10"
    d="M379.87,298.42V165.94q23.81-1.73,45.89-1.73,28,0,39.26,15.07t11.24,52.9q0,37.83-11.24,52.9t-39.26,15.07Q404.06,300.15,379.87,298.42Zm12.48-122.69v112.9q19.2.39,33.41.38,20.92,0,29.09-12.48T463,232.18q0-31.87-8.16-44.45t-29.09-12.57Q422.31,175.16,392.35,175.73Z"/><path
    class="cls-10"
    d="M555.61,257.91H509.14q1.16,18.43,8.45,25.34t23.81,6.91a249,249,0,0,0,32.06-2.3l1.35,8.26q-11.91,4.61-35.14,4.6-23.43,0-33.31-11.23t-9.89-37.92q0-26.88,9.6-37.73T538.13,203q19.79,0,29.19,7.2t9.6,21.79Q577.29,257.91,555.61,257.91Zm-46.47-9.6h43.59q12.28,0,11.9-16.13-.2-9.8-6.34-14.21t-19.58-4.41q-16.32,0-22.85,7.58T509.14,248.31Z"/><path class="cls-10" d="M680.27,205.49l-35.52,89.86a4.47,4.47,0,0,1-4.61,3.07H628.82a4.47,4.47,0,0,1-4.61-3.07l-35.52-89.86h13l25.35,67.2c.77,1.92,1.82,4.8,3.17,8.64s2.33,6.53,3,8.07h2.5l6.33-16.9,25.35-67Z"/><path class="cls-10" d="M699.34,298.42V165.94q15.93-1.53,44.35-1.54,23.22,0,32.16,8.55t8.93,32q0,23.42-8.74,32t-31,8.55q-16.69,0-33.21-1.54v54.53Zm12.48-63.94H743.5q16.13-.18,22.27-6.24t6.14-23.32q0-17.47-6.14-23.62t-22.27-6.14q-16.34,0-31.68.38Z"/><path
    class="cls-10"
    d="M810.5,214q9.69-11,33.12-11t33,11q9.58,11,9.6,37.92t-9.6,37.82q-9.61,11-33,10.94t-33.12-11q-9.69-11-9.7-37.72Q800.8,225.08,810.5,214ZM867,221.81q-6.52-8.25-23.42-8.25t-23.42,8.25q-6.54,8.26-6.53,30.15t6.53,30.14q6.52,8.25,23.42,8.26T867,282.1q6.54-8.25,6.53-30.14T867,221.81Z"/><path class="cls-10" d="M911.84,166.32h5.56q4,0,4,4v11.13q0,4-4,4h-5.56q-4,0-4-4V170.36Q907.8,166.33,911.84,166.32Zm8.83,132.1h-12.1V205.49h12.1Z"/><path class="cls-10" d="M957,205.49l1,15.36q23.24-17.85,43-17.85,25,0,25,25.53v69.89h-12.09V231.8q0-9.8-3.75-14t-12.38-4.22a41.12,41.12,0,0,0-17,3.84,171,171,0,0,0-21.6,12.28v68.74H946.8V205.49Z"/><path class="cls-10" d="M1101,288.82l1.54,9.22A99.37,99.37,0,0,1,1083.1,300q-23,0-23-23.24V215.09h-16.9v-8.64l16.9-1V177.27h12.09v28.22h31.49v9.6h-31.49v60.29q0,13.44,13.64,13.44Z"/><path class="cls-10" d="M1181.78,165.94v107.9q0,14,13.83,14H1245l.38,9.6q-20.34,1.16-51.83,1.15-12.11,0-18.25-6.33t-6.14-16.71V165.94Z"/><path
    class="cls-10"
    d="M1265.42,216.24l-1.16-9Q1292.1,203,1309,203q15,0,22.37,6.62t7.39,22v66.82h-9.6l-1.54-16.32a67.21,67.21,0,0,1-17.95,12.38,50.63,50.63,0,0,1-22.75,5.48q-12.29,0-19.39-6.53t-7.11-18.63V264.05q0-10.76,6.34-16.7t18-5.95h41.66v-9.8q0-9.21-4.32-13.63t-15.45-4.41A395.06,395.06,0,0,0,1265.42,216.24Zm7.29,49.35v8.06q0,15.56,16.32,15.55,8.45.19,18.91-4.12a63.22,63.22,0,0,0,18.53-11.62V251.19h-39.74Q1272.71,251.76,1272.71,265.59Z"/><path
    class="cls-10"
    d="M1376.06,164v37.25q0,13.44-1.34,20Q1393.34,203,1411.58,203q17.87,0,25.83,11.32t8,37.44q0,25.55-8.93,37.25t-31,11.71a137.61,137.61,0,0,1-41.47-6.33V164Zm0,65.47v57a97.33,97.33,0,0,0,29.19,3.64q15,0,21.21-8.64t6.25-29.76q0-21.3-5.29-29.66t-19.29-8.35a30.47,30.47,0,0,0-14.5,3.74A130.32,130.32,0,0,0,1376.06,229.49Z"/><path
    class="cls-10"
    d="M1512.46,259.06,1484,253.68q-10.93-2.1-15.84-8t-4.89-17.38q0-15.74,8-20.64T1499,203a297.1,297.1,0,0,1,38,2.88l-1.16,8.83q-23-1.16-35.32-1.15-15.37-.19-20.36,2.2t-5,12.58q0,7.88,3.27,10.94t10.94,4.61l28.61,5.38q11.13,2.29,16.32,8t5.18,17q0,16.32-8.73,21.31t-29.86,5a238.58,238.58,0,0,1-35.52-2.49l1-9q15.16,1.35,32.45,1.15,17.09-.18,22.94-3.16t5.86-12.77q0-7.49-3.65-10.56T1512.46,259.06Z"/></svg>